<?xml version="1.0" standalone="no"?><svg xmlns="http://www.w3.org/2000/svg" viewBox="0 0 740 320"><path fill="#6e78e8" fill-opacity="0.7" d="M0,192L9.6,213.3C19.2,235,38,277,58,293.3C76.8,309,96,299,115,256C134.4,213,154,139,173,117.3C192,96,211,128,230,160C249.6,192,269,224,288,208C307.2,192,326,128,346,112C364.8,96,384,128,403,138.7C422.4,149,442,139,461,138.7C480,139,499,149,518,144C537.6,139,557,117,576,106.7C595.2,96,614,96,634,90.7C652.8,85,672,75,691,74.7C710.4,75,730,85,749,80C768,75,787,53,806,80C825.6,107,845,181,864,218.7C883.2,256,902,256,922,261.3C940.8,267,960,277,979,256C998.4,235,1018,181,1037,138.7C1056,96,1075,64,1094,74.7C1113.6,85,1133,139,1152,144C1171.2,149,1190,107,1210,74.7C1228.8,43,1248,21,1267,53.3C1286.4,85,1306,171,1325,208C1344,245,1363,235,1382,245.3C1401.6,256,1421,288,1430,304L1440,320L1440,320L1430.4,320C1420.8,320,1402,320,1382,320C1363.2,320,1344,320,1325,320C1305.6,320,1286,320,1267,320C1248,320,1229,320,1210,320C1190.4,320,1171,320,1152,320C1132.8,320,1114,320,1094,320C1075.2,320,1056,320,1037,320C1017.6,320,998,320,979,320C960,320,941,320,922,320C902.4,320,883,320,864,320C844.8,320,826,320,806,320C787.2,320,768,320,749,320C729.6,320,710,320,691,320C672,320,653,320,634,320C614.4,320,595,320,576,320C556.8,320,538,320,518,320C499.2,320,480,320,461,320C441.6,320,422,320,403,320C384,320,365,320,346,320C326.4,320,307,320,288,320C268.8,320,250,320,230,320C211.2,320,192,320,173,320C153.6,320,134,320,115,320C96,320,77,320,58,320C38.4,320,19,320,10,320L0,320Z"></path></svg>